<mxfile host="app.diagrams.net" modified="2023-10-08T14:32:49.221Z" agent="Mozilla/5.0 (Windows NT 10.0; Win64; x64) AppleWebKit/537.36 (KHTML, like Gecko) Chrome/117.0.0.0 Safari/537.36" version="22.0.4" etag="HUNfMFpeNY9h42ieI4Nc" type="github">
  <diagram name="Page-1" id="SOrxhqFkpbfgJMDYmpmS">
    <mxGraphModel>
      <root>
        <mxCell id="0" />
        <mxCell id="1" parent="0" />
      </root>
    </mxGraphModel>
  </diagram>
</mxfile>
